<?xml version="1.0" encoding="UTF-8"?>
<svg version="1.1" xmlns="http://www.w3.org/2000/svg" width="2688" height="730">
<path d="M0 0 C887.04 0 1774.08 0 2688 0 C2688 240.9 2688 481.8 2688 730 C1800.96 730 913.92 730 0 730 C0 489.1 0 248.2 0 0 Z " fill="#FEFEFE" transform="translate(0,0)"/>
<path d="M0 0 C36.63 0 73.26 0 111 0 C111 66 111 132 111 200 C112.32 200 113.64 200 115 200 C115.23460937 199.16984375 115.46921875 198.3396875 115.7109375 197.484375 C117.2326309 193.37119164 119.2768961 189.93591043 121.625 186.25 C122.07157959 185.54407715 122.51815918 184.8381543 122.97827148 184.11083984 C126.62927325 178.42051047 130.58005415 173.12013529 135 168 C135.99193359 166.79150391 135.99193359 166.79150391 137.00390625 165.55859375 C155.52401987 143.7642059 182.84788032 131.08710335 211.0546875 128.3515625 C252.94456883 124.99141159 293.9483067 135.97554486 326.24853516 163.45947266 C345.93861145 180.77817651 360.1836348 202.22385381 371 226 C371.29326172 226.63147949 371.58652344 227.26295898 371.88867188 227.91357422 C376.57769072 238.21322865 379.50208363 248.99326197 382.25 259.9375 C382.57935547 261.21423584 382.90871094 262.49097168 383.24804688 263.80639648 C388.93560837 286.87302758 389.61187108 310.67033647 389.5625 334.3125 C389.56266877 335.67201742 389.56285203 337.03153483 389.56304932 338.39105225 C389.53253381 366.70761066 387.4629773 394.98767536 377.77099609 421.85058594 C376.96822161 424.08859308 376.22660482 426.34154315 375.48828125 428.6015625 C369.25263614 447.13903002 360.04126798 464.59213394 348 480 C347.38253906 480.83789062 346.76507812 481.67578125 346.12890625 482.5390625 C328.17757967 506.24253459 303.33421947 523.19815707 275 532 C273.53046875 532.53173828 273.53046875 532.53173828 272.03125 533.07421875 C241.42311773 543.68451202 202.27225703 542.64117817 172.84765625 528.93359375 C147.25080158 516.30650177 128.0639339 496.41376209 115 471 C115 470.34 115 469.68 115 469 C113.35 469 111.7 469 110 469 C110 490.12 110 511.24 110 533 C73.7 533 37.4 533 0 533 C0 357.11 0 181.22 0 0 Z " fill="#1E49A7" transform="translate(944,88)"/>
<path d="M0 0 C1.87751953 0.2165625 1.87751953 0.2165625 3.79296875 0.4375 C7.21395647 0.87840981 10.60114234 1.41268346 14 2 C14.66402832 2.11005371 15.32805664 2.22010742 16.01220703 2.33349609 C48.76736884 7.91058548 81.93824857 21.92548519 107 44 C107.87398438 44.76441406 108.74796875 45.52882812 109.6484375 46.31640625 C130.53705458 64.85270159 144.90644906 86.60089948 154 113 C154.32613281 113.92425781 154.65226562 114.84851563 154.98828125 115.80078125 C156.92708889 122.03479351 157.76288019 128.4910248 158.6875 134.9375 C158.81930664 135.84338867 158.95111328 136.74927734 159.08691406 137.68261719 C160.01140409 144.62252208 160 150.85988488 160 158 C124.36 158 88.72 158 52 158 C50.02 149.09 50.02 149.09 48 140 C44.25092375 131.17864412 40.45109836 124.67523106 33.72265625 117.890625 C32 116 32 116 32 114 C31.44828125 113.73960937 30.8965625 113.47921875 30.328125 113.2109375 C27.684003 111.83563915 25.24392537 110.25673974 22.75 108.625 C-4.23098374 91.44237351 -39.27091243 88.96637536 -70.17382812 95.45654297 C-88.5668414 99.73427461 -105.11276528 108.52853759 -116 124.375 C-123.57324621 137.48467803 -125.02474863 151.76382075 -121.875 166.4375 C-120.05190197 172.74021033 -117.04831273 179.01519378 -112.3125 183.65234375 C-111 185 -111 185 -111 187 C-110.13181641 187.4021875 -110.13181641 187.4021875 -109.24609375 187.8125 C-106.95697647 189.02274636 -105.10780774 190.41555304 -103.0625 192 C-82.53709646 206.46724478 -57.04903682 213.1275119 -33 219 C-32.15421387 219.20834473 -31.30842773 219.41668945 -30.43701172 219.63134766 C-21.76714788 221.75985659 -13.07359588 223.77031357 -4.35546875 225.69140625 C8.94799189 228.62798465 22.09376945 231.582252 35 236 C36.60185308 236.50711252 38.20479704 237.01078713 39.80859375 237.51171875 C72.6185623 247.88691321 103.25364319 262.79602909 128 287 C128.79664063 287.73476563 129.59328125 288.46953125 130.4140625 289.2265625 C140.02795793 298.29691614 147.27329582 309.12409138 153.4375 320.75 C153.83831787 321.50522949 154.23913574 322.26045898 154.65209961 323.03857422 C170.16381243 353.32849264 172.38739562 394.39682699 163 427 C162.76394043 427.83112305 162.52788086 428.66224609 162.28466797 429.51855469 C155.10337414 453.86365007 142.14156016 474.32360804 124 492 C123.48824219 492.556875 122.97648437 493.11375 122.44921875 493.6875 C97.67937953 519.9955091 59.45960559 532.91453121 25 540 C23.87754883 540.23178955 23.87754883 540.23178955 22.73242188 540.46826172 C0.42328897 544.89918646 -22.6383512 545.17477693 -45.3125 545.25 C-46.11522339 545.25526703 -46.91794678 545.26053406 -47.74499512 545.26596069 C-58.6447973 545.3214692 -69.27085831 544.63260579 -80.08126831 543.24377441 C-82.62658812 542.92039213 -85.17639348 542.64159968 -87.7265625 542.359375 C-137.04095941 536.41794041 -187.87159085 515.80866806 -219.6015625 476.171875 C-243.19238636 444.97358676 -253 408.84184974 -253 370 C-217.03 370 -181.06 370 -144 370 C-143.01 375.94 -142.02 381.88 -141 388 C-139.80244544 392.21208846 -138.63848969 395.99355603 -137 400 C-136.60296875 400.98226563 -136.2059375 401.96453125 -135.796875 402.9765625 C-131.9815304 411.46241514 -126.53478503 417.54243548 -120 424 C-119.42636719 424.58394531 -118.85273438 425.16789062 -118.26171875 425.76953125 C-95.52644488 447.09486565 -61.59142711 450.83731936 -31.9765625 450.10058594 C-8.22025713 449.2977974 15.69636665 442.76487436 34 427 C34.86625 426.401875 35.7325 425.80375 36.625 425.1875 C46.28641672 416.2888267 52.33494304 402.40288223 53.25390625 389.41015625 C53.85181206 374.49150049 50.01477182 362.87349737 39.921875 351.69921875 C27.50904334 339.47637942 10.11186981 333.645312 -6 328 C-7.0679631 327.62521011 -8.13592621 327.25042023 -9.23625183 326.86427307 C-17.82102723 323.92340861 -26.42653075 321.49499531 -35.24942589 319.3823452 C-37.53236847 318.83555341 -39.81318256 318.28050701 -42.09370422 317.72370911 C-46.95660722 316.53792802 -51.82189491 315.36213616 -56.6875 314.1875 C-92.98689802 305.42018732 -92.98689802 305.42018732 -109.55859375 300.6953125 C-110.64669846 300.38534836 -111.73480316 300.07538422 -112.85588074 299.75602722 C-157.75858231 286.69988249 -202.80637684 262.95741901 -226.1875 220.8125 C-236.25670533 201.92035171 -239.22460586 182.13149408 -239.1875 161 C-239.18623108 160.2615686 -239.18496216 159.52313721 -239.18365479 158.7623291 C-239.05241636 118.78558485 -226.15544802 84.79631558 -198 56 C-197.26394531 55.21367187 -196.52789062 54.42734375 -195.76953125 53.6171875 C-164.0428059 20.44571145 -113.8005204 2.84655216 -68.97460938 -0.83691406 C-67.18457369 -0.98475578 -65.39675405 -1.15884695 -63.609375 -1.3359375 C-42.49158211 -3.15304991 -21.02217962 -2.54869465 0 0 Z " fill="#1D49A7" transform="translate(277,83)"/>
<path d="M0 0 C35.31 0 70.62 0 107 0 C107 66.99 107 133.98 107 203 C108.65 203 110.3 203 112 203 C112.16218018 202.44820068 112.32436035 201.89640137 112.49145508 201.32788086 C114.26800384 195.6163766 116.59748655 190.67213395 119.6875 185.5625 C120.13319336 184.8202417 120.57888672 184.0779834 121.03808594 183.31323242 C129.86411528 168.85326488 142.26267868 154.65688805 157 146 C157.59087402 145.65130859 158.18174805 145.30261719 158.79052734 144.94335938 C193.01753715 125.03624542 235.0337742 121.75190789 273.07568359 131.81347656 C291.29139988 137.1152628 307.86795374 145.23485993 322 158 C322.89847656 158.75667969 323.79695313 159.51335937 324.72265625 160.29296875 C353.65029745 185.23339639 365.97347612 221.9487648 369 259 C369.47130213 268.25550129 369.38211217 277.52077333 369.34057617 286.78515625 C369.33972758 289.47832638 369.34007836 292.17147211 369.34190369 294.86463928 C369.34345961 300.60847235 369.33422942 306.35220139 369.31719017 312.0960083 C369.29257215 320.40007143 369.28497191 328.70408544 369.2812262 337.0081811 C369.27469697 350.48839256 369.25483286 363.96854887 369.22631836 377.44873047 C369.19868555 390.52587614 369.17749742 403.60300672 369.16479492 416.68017578 C369.16400675 417.48932021 369.16321858 418.29846464 369.16240653 419.1321286 C369.15849077 423.19228473 369.1546998 427.25244097 369.15097082 431.31259727 C369.11998508 464.87511377 369.06474242 498.43752743 369 532 C332.37 532 295.74 532 258 532 C257.96261719 514.22253906 257.92523437 496.44507813 257.88671875 478.12890625 C257.85643874 466.8587162 257.82541182 455.58853637 257.79101562 444.31835938 C257.77296791 438.3954271 257.75510432 432.47249431 257.73754883 426.54956055 C257.7342373 425.43618392 257.7342373 425.43618392 257.73085886 424.30031484 C257.6955756 412.34757107 257.67066841 400.39482735 257.64965298 388.44205094 C257.62782115 376.15756266 257.59470134 363.87314142 257.55129844 351.58871025 C257.52490824 344.02039865 257.50712014 336.45217044 257.50065396 328.88381516 C257.49473166 323.06140599 257.47303597 317.23913422 257.44572449 311.41679001 C257.43698918 309.04219693 257.43321224 306.66757914 257.43499184 304.29297066 C257.44732983 280.21582701 255.34408605 256.67341687 238.234375 238.01171875 C230.40252211 230.96031274 221.11786926 225.853758 211 223 C209.58074219 222.55527344 209.58074219 222.55527344 208.1328125 222.1015625 C188.08899233 216.54233502 165.25219632 219.58499513 147.16796875 229.5625 C130.99743638 239.33266781 119.44266118 253.62050133 114.45828962 271.99721384 C110.97000332 286.16105677 110.4182391 299.86525219 110.45410156 314.39355469 C110.44534495 316.77086557 110.43485199 319.14817058 110.42277527 321.52546692 C110.39515049 327.91462247 110.39150535 334.30358347 110.39249516 340.69279003 C110.38966571 346.71293975 110.36849276 352.73300399 110.34752855 358.75311068 C110.30664891 370.66043055 110.28318622 382.56771633 110.27099609 394.47509766 C110.25913131 406.02753983 110.23882012 417.5799177 110.20751953 429.13232422 C110.20557402 429.8541825 110.2036285 430.57604078 110.20162404 431.31977355 C110.18462298 437.60097365 110.16699125 443.88217195 110.14929771 450.16337013 C110.07420899 477.10890859 110.04047111 504.05433579 110 531 C73.7 531 37.4 531 0 531 C0 355.77 0 180.54 0 0 Z " fill="#1D49A7" transform="translate(2282,89)"/>
<path d="M0 0 C1.0012793 0.17128418 2.00255859 0.34256836 3.03417969 0.51904297 C35.68587329 6.37743887 64.87516482 20.3116699 89 43 C89.90298828 43.80630859 89.90298828 43.80630859 90.82421875 44.62890625 C109.1605098 61.68293918 119.85990123 88.45542893 122 113 C122.13755227 116.96567067 122.13078716 120.92789939 122.12025452 124.89562988 C122.12153615 126.6699776 122.12153615 126.6699776 122.12284368 128.48017073 C122.1242013 131.74576411 122.12109394 135.01131737 122.11606562 138.27690601 C122.11173344 141.80508735 122.11320951 145.33326694 122.1139679 148.8614502 C122.11449138 154.96839334 122.11136293 161.07532578 122.10573006 167.18226624 C122.09759126 176.01179674 122.0949974 184.84132209 122.09374207 193.67085594 C122.09155529 207.99737043 122.08490534 222.32387923 122.07543945 236.65039062 C122.06625566 250.56445284 122.05917956 264.47851349 122.05493164 278.39257812 C122.05453756 279.67980753 122.05453756 279.67980753 122.05413551 280.99304157 C122.05283044 285.29828901 122.05156674 289.60353646 122.05032361 293.90878391 C122.03996264 329.60586101 122.0215306 365.30292755 122 401 C87.35 401 52.7 401 17 401 C17 382.52 17 364.04 17 345 C13.08422473 346.30525842 12.88567294 347.64836468 11 351.25 C6.84742996 358.63136921 1.6551119 364.72688934 -4 371 C-4.57234375 371.65613281 -5.1446875 372.31226563 -5.734375 372.98828125 C-27.27175806 396.2464346 -60.26488985 406.80128012 -91.08496094 408.21142578 C-107.16827037 408.79544327 -123.25971035 408.65018029 -139 405 C-139.77408203 404.82839355 -140.54816406 404.65678711 -141.34570312 404.47998047 C-171.57909267 397.65367641 -201.28562038 382.32446958 -218.3125 355.5 C-221.64242789 349.83175252 -224.51932172 344.08569275 -227 338 C-227.35835938 337.14148438 -227.71671875 336.28296875 -228.0859375 335.3984375 C-239.45555542 306.41873468 -238.75708895 266.99739831 -226.31982422 238.43798828 C-214.21019406 212.13490891 -190.73909687 193.37696345 -164.12841797 182.86572266 C-135.92002798 172.47559378 -107.18195638 167.83963499 -77.39779663 164.88549805 C-64.67890636 163.61314547 -52.06121376 161.94426754 -39.4375 159.9375 C-38.2550621 159.75154266 -38.2550621 159.75154266 -37.04873657 159.56182861 C-13.73742134 156.93989243 -13.73742134 156.93989243 6 146 C10.40029199 139.89531185 10.66752401 134.78438631 10.5625 127.375 C10.55299316 126.30701172 10.54348633 125.23902344 10.53369141 124.13867188 C10.16782662 110.24003978 5.38448338 99.91171681 -4.6875 90.3125 C-9.2859578 86.43918362 -14.45545447 84.21284552 -20 82 C-21.26457031 81.47212891 -21.26457031 81.47212891 -22.5546875 80.93359375 C-41.49888777 73.70090387 -67.93585726 76.96676946 -86 85 C-100.88521701 92.92589477 -110.05912846 103.78347394 -117 119 C-117.35905493 120.32663802 -117.69936147 121.65891635 -118 123 C-127.90004518 123.24499046 -137.68690405 122.32248276 -147.54296875 121.50390625 C-149.44002439 121.34906789 -151.33710431 121.19452681 -153.23420715 121.04026794 C-157.19402789 120.71742762 -161.15361304 120.39187763 -165.11303711 120.06420898 C-170.17640887 119.64527677 -175.24020789 119.23180615 -180.30417919 118.82019138 C-184.2154582 118.5018953 -188.12655351 118.18138887 -192.03759193 117.86015129 C-193.90458227 117.70693939 -195.77161552 117.55424952 -197.63869286 117.40210152 C-200.24913751 117.18890611 -202.85933462 116.97289919 -205.46948242 116.75610352 C-206.23276855 116.69424362 -206.99605469 116.63238373 -207.7824707 116.56864929 C-212.21892813 116.1966317 -216.5986395 115.67165257 -221 115 C-218.71573574 94.25515113 -207.97783639 73.07873534 -195 57 C-194.57380371 56.46310547 -194.14760742 55.92621094 -193.70849609 55.37304688 C-168.69444148 24.06797959 -131.17513358 5.55918061 -92 -1 C-91.18756836 -1.13680176 -90.37513672 -1.27360352 -89.53808594 -1.41455078 C-59.77127594 -6.18563146 -29.62662642 -5.12291968 0 0 Z " fill="#1D49A7" transform="translate(734,220)"/>
<path d="M0 0 C6.93847834 6.16208913 13.00511337 12.68027801 18.62109375 20.08984375 C19.04600098 20.63447266 19.4709082 21.17910156 19.90869141 21.74023438 C36.38935465 42.87628468 47.44949718 67.03199158 53.62109375 93.08984375 C53.9046875 94.24484375 54.18828125 95.39984375 54.48046875 96.58984375 C55.33030723 100.40544509 56.00467813 104.2315386 56.62109375 108.08984375 C56.75789551 108.89083496 56.89469727 109.69182617 57.03564453 110.51708984 C61.25140092 136.28215789 59.62109375 161.91091884 59.62109375 188.08984375 C-30.13890625 188.08984375 -119.89890625 188.08984375 -212.37890625 188.08984375 C-209.73867058 213.1720826 -206.75138467 235.17458114 -190.37890625 255.08984375 C-189.77304688 255.90066406 -189.1671875 256.71148438 -188.54296875 257.546875 C-175.49439442 272.88012751 -155.91032719 280.64061503 -136.37890625 283.08984375 C-131.77873496 283.3169083 -127.18059593 283.35985473 -122.57568359 283.38500977 C-121.12538843 283.39645353 -119.67513281 283.41678299 -118.22509766 283.4465332 C-104.61009397 283.72467583 -92.51362565 281.4579484 -80.00390625 275.77734375 C-79.33746094 275.47884521 -78.67101563 275.18034668 -77.984375 274.87280273 C-72.47536146 272.31226586 -67.85567931 269.21532073 -63.37890625 265.08984375 C-62.70730469 264.52007813 -62.03570313 263.9503125 -61.34375 263.36328125 C-53.97909169 256.6939375 -49.74848899 247.87663412 -45.37890625 239.08984375 C-33.12498733 238.93005213 -21.0386196 239.22423153 -8.82757568 240.25787354 C-4.53619761 240.62059601 -0.2427593 240.95696286 4.05078125 241.29296875 C4.92322479 241.36158112 5.79566833 241.43019348 6.69454956 241.50088501 C17.55990645 242.33990338 28.44055919 242.9019273 39.32421875 243.44287109 C40.04221649 243.47971008 40.76021423 243.51654907 41.49996948 243.55450439 C43.42316586 243.65283272 45.34658589 243.74675958 47.27001953 243.84033203 C50.4403998 244.07638978 53.49668917 244.51217765 56.62109375 245.08984375 C55.01172812 268.82798685 41.7460039 291.34889547 26.62109375 309.08984375 C25.96238281 309.87101562 25.30367187 310.6521875 24.625 311.45703125 C20.2977339 316.46754989 15.75871127 320.91879495 10.62109375 325.08984375 C9.20183594 326.24806641 9.20183594 326.24806641 7.75390625 327.4296875 C-37.75514119 363.86817874 -98.00009555 371.82841645 -154.56982422 366.14453125 C-203.23015627 360.40773421 -248.55980063 338.96964909 -279.578125 300.19921875 C-282.33594535 296.59856208 -284.89889358 292.88603022 -287.37890625 289.08984375 C-287.76981445 288.49526367 -288.16072266 287.90068359 -288.56347656 287.28808594 C-301.43432491 267.43789891 -310.44092096 245.21891279 -315.37890625 222.08984375 C-315.53456055 221.39133301 -315.69021484 220.69282227 -315.85058594 219.97314453 C-316.39548048 217.51498521 -316.92063253 215.05322011 -317.44140625 212.58984375 C-317.68540161 211.47984009 -317.68540161 211.47984009 -317.93432617 210.34741211 C-321.19582521 194.36191734 -321.79126576 177.98056956 -321.75390625 161.71484375 C-321.75336243 160.81074768 -321.7528186 159.90665161 -321.7522583 158.97515869 C-321.59691041 102.30300439 -303.81144501 47.77784544 -263.9140625 6.57714844 C-200.22566653 -56.72290365 -87.30669452 -62.76203205 0 0 Z " fill="#1D49A7" transform="translate(1712.37890625,260.91015625)"/>
<path d="M0 0 C1.0415625 0.20882812 2.083125 0.41765625 3.15625 0.6328125 C30.57685105 6.2400177 56.17019586 16.42526379 78.375 33.625 C79.33792969 34.36492187 80.30085938 35.10484375 81.29296875 35.8671875 C112.65079939 60.7234651 132.01028144 96.53612226 141.625 134.875 C141.97655151 136.24543457 141.97655151 136.24543457 142.33520508 137.64355469 C149.57517326 168.20365 147.375 198.12745274 147.375 229.625 C57.945 229.625 -31.485 229.625 -123.625 229.625 C-120.85791418 260.06294405 -115.64661433 287.13383505 -91.625 307.625 C-68.0369065 324.23844149 -40.35671781 328.3750223 -12.13671875 323.89453125 C-8.19113955 323.10380081 -4.42081003 321.96779523 -0.625 320.625 C1.00115234 320.06425781 1.00115234 320.06425781 2.66015625 319.4921875 C9.80206557 316.76544083 16.13689775 313.01844881 22.375 308.625 C23.01050781 308.18800781 23.64601563 307.75101563 24.30078125 307.30078125 C32.7334225 300.84544898 38.58774185 290.34014047 42.375 280.625 C52.45658242 280.52126516 62.43792475 280.79944765 72.50390625 281.4296875 C73.90948197 281.51487719 75.31507636 281.5997594 76.72068787 281.68435669 C79.64608855 281.86140982 82.57127633 282.04155297 85.49633789 282.22412109 C89.17440592 282.45352663 92.85285297 282.67599215 96.53147316 282.89634323 C112.83864984 283.87563703 129.11680047 285.00321813 145.375 286.625 C137.10252618 325.46102849 115.42689598 357.22467384 82.12182617 379.10913086 C33.49963887 409.98105681 -32.41038411 416.0247958 -88.08984375 404.3359375 C-114.69785293 398.26649345 -140.07904684 387.57410713 -161.625 370.625 C-162.54796875 369.92246094 -163.4709375 369.21992187 -164.421875 368.49609375 C-204.75571109 336.84685532 -225.26505716 288.51442536 -231.625 238.625 C-231.79273926 237.38733887 -231.96047852 236.14967773 -232.13330078 234.87451172 C-233.45689147 224.76874196 -234.02524804 214.8135671 -234 204.625 C-234.00012085 203.86263031 -234.0002417 203.10026062 -234.00036621 202.31478882 C-233.95099999 180.11061044 -232.09161974 156.95190231 -225.625 135.625 C-225.23900635 134.31571533 -225.23900635 134.31571533 -224.84521484 132.97998047 C-218.63713211 112.23145327 -210.20597208 92.34244809 -197.625 74.625 C-196.90828125 73.60535156 -196.1915625 72.58570313 -195.453125 71.53515625 C-190.42376162 64.60640564 -184.91693984 58.25734642 -179.01025391 52.07763672 C-177.67617355 50.67866278 -176.35919271 49.2634433 -175.04296875 47.84765625 C-131.76135127 2.61933934 -59.92382459 -12.55262161 0 0 Z " fill="#1D49A7" transform="translate(2061.625,219.375)"/>
<path d="M0 0 C1.74023438 -0.01836914 1.74023438 -0.01836914 3.515625 -0.03710938 C24.28088984 -0.07195042 40.19969381 6.06920979 55.5 20.3125 C67.47961228 32.80552424 75.10228281 49.75061882 79.875 66.1875 C80.15085937 67.12722656 80.42671875 68.06695312 80.7109375 69.03515625 C84.62192786 83.42063071 85.22591277 97.90770112 85.19067383 112.72241211 C85.18751535 115.48656796 85.21107358 118.24964724 85.23632812 121.01367188 C85.31753536 144.02000182 81.13944546 166.10541546 71.875 187.1875 C71.49730469 188.06792969 71.11960937 188.94835937 70.73046875 189.85546875 C62.25556971 208.21275889 48.17917884 222.30364026 29.4375 229.9375 C10.61330379 236.72119064 -11.73403572 236.71053753 -30.16015625 228.45703125 C-38.23262639 224.55067503 -44.8541848 219.63160198 -51.125 213.1875 C-51.88167969 212.45144531 -52.63835937 211.71539063 -53.41796875 210.95703125 C-64.23424429 199.84288926 -70.31868568 185.71619344 -75.125 171.1875 C-75.50398438 170.09566406 -75.88296875 169.00382813 -76.2734375 167.87890625 C-81.71870952 150.82660703 -82.40436055 133.13259488 -82.4375 115.375 C-82.44108521 114.60638641 -82.44467041 113.83777283 -82.44836426 113.04586792 C-82.48491255 98.48117913 -81.88954316 83.58428771 -77.875 69.5 C-77.66029053 68.71947266 -77.44558105 67.93894531 -77.22436523 67.13476562 C-70.47194997 43.38639292 -58.08271682 20.00958611 -35.87109375 7.5 C-23.86107557 1.75979216 -13.14339584 0.00715871 0 0 Z " fill="#FEFEFE" transform="translate(1135.125,304.8125)"/>
<path d="M0 0 C0.1540154 7.5029829 0.25798472 15.00554839 0.32958984 22.50976562 C0.35948649 25.05451691 0.40021931 27.59916767 0.45263672 30.14355469 C0.94427416 54.64830721 -2.31134097 73.25506096 -19.640625 91.66015625 C-38.40447985 110.26868118 -61.44527888 115.37010871 -87.15112305 115.38720703 C-101.39206702 115.29450916 -113.25985355 112.55172538 -125 104 C-125.71671875 103.48824219 -126.4334375 102.97648438 -127.171875 102.44921875 C-134.37674996 96.77470257 -139.16729056 88.56404968 -140.7578125 79.5078125 C-142.19978 64.57647164 -140.78499357 51.75687529 -131.125 40 C-115.21659724 23.05183236 -90.39653417 19.12941593 -68.58862305 15.6887207 C-59.93338366 14.3205626 -51.28463202 12.91874474 -42.64782715 11.43862915 C-41.20278589 11.19272793 -39.75708192 10.95068188 -38.31066895 10.71298218 C-26.5570525 8.77706202 -15.07653 6.10441464 -4.09936523 1.34399414 C-1 0 -1 0 0 0 Z " fill="#FEFEFE" transform="translate(746,436)"/>
<path d="M0 0 C15.95004068 13.54660989 25.76347467 32.47152497 28.53125 53.125 C28.53125 57.085 28.53125 61.045 28.53125 65.125 C-26.90875 65.125 -82.34875 65.125 -139.46875 65.125 C-137.13772699 45.31130439 -137.13772699 45.31130439 -134.84375 39.375 C-134.58577637 38.67947021 -134.32780273 37.98394043 -134.06201172 37.26733398 C-125.78890933 15.96958632 -109.45068295 -0.83562664 -88.96875 -10.625 C-60.46942166 -23.00185116 -24.70543549 -18.76362189 0 0 Z " fill="#FCFDFE" transform="translate(1639.46875,315.875)"/>
<path d="M0 0 C15.54415778 12.50771816 26.13261834 31.12746084 28.70703125 50.9921875 C29.04518162 55.79392274 29.01953125 60.61606029 29.01953125 65.4296875 C-26.09046875 65.4296875 -81.20046875 65.4296875 -137.98046875 65.4296875 C-137.98046875 45.41096186 -131.01502063 29.07893392 -118.98046875 13.4296875 C-118.42875 12.69363281 -117.87703125 11.95757812 -117.30859375 11.19921875 C-89.5553716 -23.21752456 -33.94092885 -26.13392969 0 0 Z " fill="#FDFDFE" transform="translate(2075.98046875,315.5703125)"/>
</svg>
